<svg width="25" height="25" viewBox="0 0 25 25" fill="none" xmlns="http://www.w3.org/2000/svg">
<path d="M0 0.833333C0 0.373096 0.373096 0 0.833333 0H3.33333C3.71572 0 4.04904 0.260248 4.14178 0.63122L4.81731 3.33333H24.1667C24.4146 3.33333 24.6496 3.44371 24.8079 3.63447C24.9662 3.82523 25.0314 4.07658 24.9857 4.32024L22.4857 17.6536C22.4118 18.0477 22.0677 18.3333 21.6667 18.3333H20H8.33333H6.66667C6.26565 18.3333 5.92151 18.0477 5.84761 17.6536L3.35219 4.34467L2.68269 1.66667H0.833333C0.373096 1.66667 0 1.29357 0 0.833333ZM8.33333 18.3333C6.49238 18.3333 5 19.8257 5 21.6667C5 23.5076 6.49238 25 8.33333 25C10.1743 25 11.6667 23.5076 11.6667 21.6667C11.6667 19.8257 10.1743 18.3333 8.33333 18.3333ZM20 18.3333C18.159 18.3333 16.6667 19.8257 16.6667 21.6667C16.6667 23.5076 18.159 25 20 25C21.8409 25 23.3333 23.5076 23.3333 21.6667C23.3333 19.8257 21.8409 18.3333 20 18.3333ZM8.33333 20C9.25381 20 10 20.7462 10 21.6667C10 22.5871 9.25381 23.3333 8.33333 23.3333C7.41286 23.3333 6.66667 22.5871 6.66667 21.6667C6.66667 20.7462 7.41286 20 8.33333 20ZM20 20C20.9205 20 21.6667 20.7462 21.6667 21.6667C21.6667 22.5871 20.9205 23.3333 20 23.3333C19.0795 23.3333 18.3333 22.5871 18.3333 21.6667C18.3333 20.7462 19.0795 20 20 20Z" fill="black"/>
</svg>
