<svg width="32" height="32" viewBox="0 0 32 32"  xmlns="http://www.w3.org/2000/svg">
<g clip-path="url(#clip0_37_132)">
<path d="M26.6667 28C24.8133 28 22.96 27.3734 21.3333 26.24C18.08 28.52 13.92 28.52 10.6667 26.24C9.03999 27.3734 7.18665 28 5.33332 28H2.66665V30.6667H5.33332C7.17332 30.6667 8.98665 30.2 10.6667 29.3467C14.0267 31.0667 17.9733 31.0667 21.3333 29.3467C23.0133 30.2134 24.8267 30.6667 26.6667 30.6667H29.3333V28H26.6667ZM5.26665 25.3334H5.33332C7.46665 25.3334 9.35999 24.16 10.6667 22.6667C11.9733 24.16 13.8667 25.3334 16 25.3334C18.1333 25.3334 20.0267 24.16 21.3333 22.6667C22.64 24.16 24.5333 25.3334 26.6667 25.3334H26.7333L29.64 15.1334L26.6667 14.16V5.33337H20V1.33337H12V5.33337H5.33332V14.16L2.35999 15.1334L5.26665 25.3334ZM7.99999 8.00004H24V13.2934L16 10.6667L7.99999 13.2934V8.00004Z" />
</g>
<defs>
<clipPath id="clip0_37_132">
<rect width="32" height="32" />
</clipPath>
</defs>
</svg>
