<svg width="35" height="35" viewBox="0 0 35 35" fill="none" xmlns="http://www.w3.org/2000/svg">
<path fill-rule="evenodd" clip-rule="evenodd" d="M12.1006 6.25367C12.6739 5.68796 13.5973 5.6941 14.163 6.26739L18.1224 10.2798C18.6348 10.233 19.1572 10.2084 19.6875 10.2084C19.9524 10.2084 20.2138 10.2163 20.4715 10.2317C20.4928 10.2326 20.5142 10.2339 20.5355 10.2357C23.5621 10.4309 26.0772 11.645 27.9425 12.9513C29.9723 14.3729 31.3087 15.9549 31.8078 16.647C32.1751 17.1564 32.1751 17.8437 31.8078 18.3531C31.3087 19.0452 29.9723 20.6272 27.9425 22.0487C26.0763 23.3557 23.5597 24.5703 20.5312 24.7647C20.5114 24.7663 20.4916 24.7675 20.4718 24.7684C20.214 24.7837 19.9525 24.7917 19.6875 24.7917C19.5909 24.7917 19.4946 24.7909 19.3986 24.7893C19.1244 25.2196 18.7428 25.794 18.3098 26.3743C17.8765 26.955 17.3586 27.5866 16.8193 28.0875C16.5496 28.338 16.2403 28.5882 15.9022 28.7828C15.5766 28.9701 15.1198 29.1667 14.5833 29.1667H12.3958C9.99248 29.1667 8.62032 26.4229 10.0625 24.5L10.0693 24.491L10.0693 24.491L11.4473 22.6831C11.3682 22.6385 11.2901 22.5935 11.213 22.548C10.117 21.902 9.17776 21.146 8.49469 20.3361C8.41603 20.2428 8.33903 20.1467 8.26442 20.048L5.40616 22.9062C4.83664 23.4758 3.91328 23.4758 3.34376 22.9062C2.77425 22.3367 2.77425 21.4134 3.34376 20.8438L6.68756 17.5L3.34376 14.1562C2.77425 13.5867 2.77425 12.6634 3.34376 12.0938C3.91328 11.5243 4.83664 11.5243 5.40616 12.0938L8.26442 14.9521C8.33903 14.8534 8.41603 14.7573 8.49469 14.664C9.17776 13.8541 10.117 13.0981 11.213 12.452C12.2188 11.8591 13.3917 11.3383 14.6842 10.9481L12.0869 8.31602C11.5212 7.74273 11.5274 6.81939 12.1006 6.25367ZM17.7635 13.2551C15.7908 13.5221 14.0356 14.1739 12.694 14.9647C11.8107 15.4854 11.1481 16.0418 10.7243 16.5444C10.2774 17.0743 10.2083 17.4051 10.2083 17.5C10.2083 17.595 10.2774 17.9258 10.7243 18.4557C11.1481 18.9583 11.8107 19.5147 12.694 20.0354C13.1544 20.3068 13.6635 20.5618 14.2134 20.7905C14.233 20.7981 14.2525 20.8061 14.2719 20.8146C15.3713 21.2658 16.6309 21.6115 17.9883 21.7736C17.4026 20.4068 17.0757 19.0892 17.0738 17.698C17.0717 16.2337 17.4302 14.7866 18.0784 13.216C17.982 13.2269 17.8861 13.2387 17.7907 13.2515C17.7816 13.2528 17.7725 13.254 17.7635 13.2551ZM21.2609 13.2468C20.3613 15.1142 19.9887 16.4669 19.9904 17.6939C19.9921 18.8945 20.353 20.1276 21.2163 21.7601C23.1935 21.4619 24.8996 20.6189 26.2694 19.6597C27.3384 18.911 28.1728 18.1116 28.7331 17.5C28.1728 16.8885 27.3384 16.0891 26.2694 15.3404C24.9099 14.3884 23.2191 13.5509 21.2609 13.2468ZM14.191 23.8949L12.3958 26.25H14.4556C14.5372 26.2018 14.6645 26.1082 14.8344 25.9504C15.1859 25.6239 15.5823 25.1525 15.9721 24.6301C16.0243 24.5602 16.0757 24.4901 16.1263 24.4203C15.4548 24.2792 14.8079 24.1018 14.191 23.8949ZM14.4027 26.2776C14.4028 26.2775 14.4051 26.2764 14.4097 26.2747C14.405 26.2769 14.4027 26.2777 14.4027 26.2776ZM21.8555 16.9571C21.8555 16.1517 22.5084 15.4988 23.3138 15.4988H23.3284C24.1338 15.4988 24.7867 16.1517 24.7867 16.9571C24.7867 17.7626 24.1338 18.4155 23.3284 18.4155H23.3138C22.5084 18.4155 21.8555 17.7626 21.8555 16.9571Z" fill="#323232"/>
</svg>
