<svg width="30" height="30" viewBox="0 0 30 30"  xmlns="http://www.w3.org/2000/svg">
<path d="M22.0332 0.937499C22.0332 0.419733 21.6034 -0.0110176 21.0828 0.0661379C17.8379 0.547101 15.4808 3.83785 15.3655 15.9311C15.3605 16.4488 15.7879 16.8598 16.3143 16.8694C17.3818 16.8889 18.2206 17.1142 18.2206 18.75V29.0625C18.2206 29.5803 18.6473 30 19.1738 30L21.08 30C21.6065 30 22.0332 29.5802 22.0332 29.0625V0.937499Z" />
<path d="M5.35275 0C5.61592 3.89907e-05 5.82933 0.20989 5.82933 0.46875V10.0726C5.82933 10.205 5.93861 10.3125 6.0732 10.3125C6.20338 10.3124 6.31117 10.2115 6.31708 10.0836L6.76201 0.446777C6.77394 0.196761 6.98404 0 7.2386 0H8.23272C8.48728 0 8.69738 0.196758 8.7093 0.446777L9.15423 10.0836C9.16015 10.2116 9.26786 10.3124 9.39811 10.3125C9.5327 10.3125 9.64199 10.205 9.64199 10.0726V0.46875C9.64199 0.209866 9.85536 0 10.1186 0H10.6715C11.1668 0.00013773 11.5793 0.373387 11.6209 0.858764L12.427 10.3638C12.476 10.9436 12.362 11.5261 12.0975 12.0465C11.7441 12.7415 11.1426 13.285 10.409 13.5736L10.3066 13.6139C9.62124 13.8835 9.17908 14.5453 9.20078 15.271L9.58614 28.125C9.61682 29.151 8.77927 29.9999 7.73566 30C6.69201 30 5.8545 29.151 5.88518 28.125L6.27054 15.271C6.29224 14.5453 5.85004 13.8835 5.16472 13.6139L5.06233 13.5736C4.32878 13.285 3.7272 12.7415 3.37381 12.0465C3.10927 11.5261 2.99528 10.9436 3.0443 10.3638L3.85039 0.858764C3.89199 0.373345 4.30447 6.41677e-05 4.79984 0H5.35275Z" />
</svg>
