<svg width="45" height="45" viewBox="0 0 45 45" fill="none" xmlns="http://www.w3.org/2000/svg">
<path d="M20.625 22.5H20.6437M24.375 41.25C25.3125 40.3125 26.475 39.375 29.0625 39.375M29.0625 39.375C26.475 39.375 25.3125 38.4375 24.375 37.5M29.0625 39.375C32.2948 39.375 35.3947 38.091 37.6803 35.8054C39.9659 33.5198 41.25 30.4198 41.25 27.1875C41.25 23.9552 39.9659 20.8552 37.6803 18.5696C35.3947 16.284 32.2948 15 29.0625 15H8.2256C7.61881 15.0032 7.01771 14.883 6.45883 14.6466C5.89995 14.4103 5.39496 14.0627 4.97457 13.6252C4.55418 13.1876 4.22716 12.6691 4.01338 12.1012C3.79961 11.5333 3.70355 10.9279 3.73104 10.3217C3.75853 9.7155 3.90899 9.12124 4.17329 8.57503C4.43759 8.02881 4.8102 7.54204 5.26847 7.14431C5.72675 6.74658 6.26111 6.44619 6.83909 6.2614C7.41707 6.07661 8.02659 6.01127 8.6306 6.06937L20.1994 7.12125C21.4298 7.23208 22.6652 6.96974 23.7444 6.36842C24.8236 5.76709 25.6967 4.85466 26.25 3.75M29.0625 39.375C30.3057 39.375 31.498 38.8811 32.377 38.0021C33.2561 37.123 33.75 35.9307 33.75 34.6875C33.75 33.4443 33.2561 32.252 32.377 31.3729C31.498 30.4939 30.3057 30 29.0625 30H22.5C19.019 30 15.6806 28.6172 13.2192 26.1558C10.7578 23.6944 9.37498 20.356 9.37498 16.875V15" stroke="white" stroke-width="3" stroke-linecap="round" stroke-linejoin="round"/>
<path d="M26.25 15C27.4811 17.3082 28.125 19.884 28.125 22.5C28.125 25.116 27.4811 27.6918 26.25 30M30 30C33.75 30 38.4375 22.5 37.5 18.75" stroke="white" stroke-width="3" stroke-linecap="round" stroke-linejoin="round"/>
</svg>
