<svg width="35" height="35" viewBox="0 0 35 35" fill="none" xmlns="http://www.w3.org/2000/svg">
<g clip-path="url(#clip0_37_123)">
<path d="M30.625 7.29167C29.0063 6.78125 27.2271 6.5625 25.5209 6.5625C22.6771 6.5625 19.6146 7.14583 17.5 8.75C15.3855 7.14583 12.323 6.5625 9.47921 6.5625C6.63546 6.5625 3.57296 7.14583 1.45837 8.75V31.3542C3.57296 29.75 6.63546 29.1667 9.47921 29.1667C12.323 29.1667 15.3855 29.75 17.5 31.3542C19.6146 29.75 22.6771 29.1667 25.5209 29.1667C27.2271 29.1667 29.0063 29.3854 30.625 29.8958C31.7188 30.2604 32.6667 30.6979 33.5417 31.3542V8.75C32.6667 8.09375 31.7188 7.65625 30.625 7.29167ZM30.625 26.9792C29.0209 26.4687 27.2709 26.25 25.5209 26.25C23.0417 26.25 19.4688 27.1979 17.5 28.4375V11.6667C19.4688 10.4271 23.0417 9.47917 25.5209 9.47917C27.2709 9.47917 29.0209 9.69792 30.625 10.2083V26.9792Z" fill="black"/>
<path d="M25.5209 15.3125C26.8042 15.3125 28.0438 15.4438 29.1667 15.6917V13.475C28.0146 13.2562 26.775 13.125 25.5209 13.125C23.0417 13.125 20.7959 13.5479 18.9584 14.3354V16.7562C20.6063 15.8229 22.8959 15.3125 25.5209 15.3125Z" fill="black"/>
<path d="M18.9584 18.2146V20.6354C20.6063 19.7021 22.8959 19.1917 25.5209 19.1917C26.8042 19.1917 28.0438 19.3229 29.1667 19.5708V17.3542C28.0146 17.1354 26.775 17.0042 25.5209 17.0042C23.0417 17.0042 20.7959 17.4417 18.9584 18.2146Z" fill="black"/>
<path d="M25.5209 20.8979C23.0417 20.8979 20.7959 21.3209 18.9584 22.1084V24.5292C20.6063 23.5959 22.8959 23.0854 25.5209 23.0854C26.8042 23.0854 28.0438 23.2167 29.1667 23.4646V21.2479C28.0146 21.0146 26.775 20.8979 25.5209 20.8979Z" fill="black"/>
</g>
<defs>
<clipPath id="clip0_37_123">
<rect width="35" height="35" fill="white"/>
</clipPath>
</defs>
</svg>
