<svg width="45" height="45" viewBox="0 0 45 45" fill="none" xmlns="http://www.w3.org/2000/svg">
<path d="M22.5 14.9999V24.3749M30.2438 18.7799L28.7869 24.2137M14.7563 18.7837L16.2132 24.2174M7.54317 26.4056L17.3682 33.1049C18.0188 33.5474 18.3244 34.3556 18.1369 35.1281C17.8407 36.3393 17.8875 37.7981 19.4119 38.1093C21.5494 38.5481 22.9332 38.5462 25.0632 38.1093C26.6344 37.7887 26.6194 36.2812 26.3194 35.0531C26.2324 34.695 26.2507 34.3194 26.3721 33.9714C26.4935 33.6235 26.7129 33.318 27.0038 33.0918L37.3482 26.4056C39.0038 25.1324 38.7263 19.6556 36.8269 18.6618C36.2982 18.3862 35.9213 17.6587 36.1519 17.1056C37.6575 13.4531 34.3782 11.3981 32.0813 10.6931C31.964 10.6566 31.8564 10.5944 31.7662 10.5111C31.676 10.4277 31.6056 10.3252 31.56 10.2112C29.3794 4.85432 25.0219 6.48744 22.695 8.27244C22.5617 8.377 22.3988 8.43689 22.2295 8.44363C22.0602 8.45036 21.8931 8.40358 21.7519 8.30994C17.1375 5.26869 14.6982 8.50494 13.8807 10.9874C13.8291 11.1488 13.7302 11.2909 13.5967 11.3952C13.4633 11.4995 13.3016 11.5613 13.1325 11.5724C8.57254 11.8424 8.09817 15.3299 8.60067 17.9231C8.71692 18.5231 8.12067 19.1174 7.60879 19.4362C6.27754 20.2668 6.17254 25.4699 7.54317 26.4056Z" stroke="white" stroke-width="3" stroke-linecap="round" stroke-linejoin="round"/>
</svg>
