<svg width="45" height="60" viewBox="0 0 45 60" fill="none" xmlns="http://www.w3.org/2000/svg">
<path d="M16.5353 24.0355C18.4876 22.0831 18.4876 18.9166 16.5353 16.9643C14.583 15.0119 11.4166 15.0119 9.46425 16.9643C7.51192 18.9166 7.51192 22.0831 9.46425 24.0355C11.4174 25.9886 14.583 25.9886 16.5353 24.0355ZM36.5352 36.9645C34.5828 35.0122 31.4164 35.0122 29.4641 36.9645C27.5118 38.9169 27.5118 42.0834 29.4641 44.0357C31.4164 45.9881 34.5828 45.9881 36.5352 44.0357C38.4883 42.0834 38.4883 38.9177 36.5352 36.9645ZM36.3836 18.8838L34.6164 17.1166C33.6399 16.14 32.0571 16.14 31.0813 17.1166L9.61659 38.5817C8.64003 39.5583 8.64003 41.1412 9.61659 42.1169L11.3838 43.8842C12.3603 44.8607 13.9431 44.8607 14.9189 43.8842L36.3836 22.419C37.3602 21.4432 37.3602 19.8604 36.3836 18.8838Z" fill="white"/>
</svg>
